<svg id="Layer_1" xmlns="http://www.w3.org/2000/svg" width="302" height="282" viewBox="0 0 302 282"><path fill="#0ebbd8" d="M180.78 202.602a8.452 8.452 0 0 1-7.254-4.096l-29.316-48.684a8.457 8.457 0 0 1 2.881-11.608 8.455 8.455 0 0 1 11.608 2.882l29.317 48.684a8.457 8.457 0 0 1-2.882 11.608 8.405 8.405 0 0 1-4.354 1.214"/><path fill="#0ebbd8" d="M159.113 87.154h-40.135a8.458 8.458 0 0 0 0 16.915h40.135c4.663 0 8.457 3.794 8.457 8.457v14.722c0 4.663-3.794 8.457-8.457 8.457h-39.218a8.457 8.457 0 1 0 0 16.915h39.218c13.99 0 25.372-11.382 25.372-25.372v-14.722c0-13.989-11.381-25.372-25.372-25.372m-39.432 10.929a2.307 2.307 0 1 1 0-4.614 2.307 2.307 0 0 1 0 4.614m0 49.839a2.307 2.307 0 1 1 0-4.614 2.307 2.307 0 0 1 0 4.614m56.242-25.61"/><path fill="#0ebbd8" d="M119.875 135.814a8.457 8.457 0 0 0-8.457 8.457v50.054a8.457 8.457 0 1 0 16.915 0v-50.054a8.459 8.459 0 0 0-8.458-8.457m-.195 60.818a2.307 2.307 0 1 1 0-4.614 2.307 2.307 0 0 1 0 4.614m0-48.71a2.307 2.307 0 1 1 0-4.614 2.307 2.307 0 0 1 0 4.614m-2.88-40.356v19.736a3.075 3.075 0 0 0 6.15 0v-19.736h-6.15z"/><path fill="#0ebbd8" d="M84.487 56.072a104.078 104.078 0 0 1 69.416-21.194c24.655 1.485 47.998 11.66 65.731 28.65a3.347 3.347 0 1 0 4.631-4.834c-18.879-18.087-43.724-28.918-69.961-30.499a110.778 110.778 0 0 0-73.882 22.557C36.298 84.458 23.924 146.084 51.641 194.1l5.798-3.348C31.4 145.642 43.027 87.742 84.487 56.072m154.811 12.764a7.812 7.812 0 0 0-12.415 9.483c33.357 43.667 24.968 106.331-18.698 139.687-43.668 33.356-106.331 24.967-139.688-18.7a7.81 7.81 0 0 0-10.948-1.465 7.809 7.809 0 0 0-1.466 10.948c38.585 50.513 111.071 60.216 161.584 21.631 50.512-38.586 60.216-111.071 21.631-161.584m-7.212 6.724a2.307 2.307 0 1 1 3.666-2.8 2.307 2.307 0 0 1-3.666 2.8M60.804 206.398a2.306 2.306 0 1 1 3.665-2.8 2.306 2.306 0 0 1-3.665 2.8"/></svg>